<svg width="24" height="24" viewBox="0 0 24 24" fill="none" xmlns="http://www.w3.org/2000/svg">
<path d="M21 13.5V19.5C21 19.6989 20.921 19.8897 20.7803 20.0303C20.6397 20.171 20.4489 20.25 20.25 20.25H3.75C3.55109 20.25 3.36032 20.171 3.21967 20.0303C3.07902 19.8897 3 19.6989 3 19.5V13.5C3 13.3011 3.07902 13.1103 3.21967 12.9697C3.36032 12.829 3.55109 12.75 3.75 12.75C3.94891 12.75 4.13968 12.829 4.28033 12.9697C4.42098 13.1103 4.5 13.3011 4.5 13.5V18.75H19.5V13.5C19.5 13.3011 19.579 13.1103 19.7197 12.9697C19.8603 12.829 20.0511 12.75 20.25 12.75C20.4489 12.75 20.6397 12.829 20.7803 12.9697C20.921 13.1103 21 13.3011 21 13.5ZM12.5306 2.46996C12.461 2.40023 12.3783 2.34491 12.2872 2.30717C12.1962 2.26943 12.0986 2.25 12 2.25C11.9014 2.25 11.8038 2.26943 11.7128 2.30717C11.6217 2.34491 11.539 2.40023 11.4694 2.46996L7.71938 6.21996C7.64969 6.28965 7.59442 6.37237 7.55671 6.46342C7.51899 6.55446 7.49958 6.65204 7.49958 6.75059C7.49958 6.84913 7.51899 6.94672 7.55671 7.03776C7.59442 7.12881 7.64969 7.21153 7.71938 7.28121C7.78906 7.3509 7.87178 7.40617 7.96283 7.44388C8.05387 7.4816 8.15145 7.50101 8.25 7.50101C8.34855 7.50101 8.44613 7.4816 8.53717 7.44388C8.62822 7.40617 8.71094 7.3509 8.78063 7.28121L11.25 4.8109V13.5006C11.25 13.6995 11.329 13.8903 11.4697 14.0309C11.6103 14.1716 11.8011 14.2506 12 14.2506C12.1989 14.2506 12.3897 14.1716 12.5303 14.0309C12.671 13.8903 12.75 13.6995 12.75 13.5006V4.8109L15.2194 7.28122C15.3601 7.42195 15.551 7.50101 15.75 7.50101C15.949 7.50101 16.1399 7.42195 16.2806 7.28122C16.4214 7.14048 16.5004 6.94961 16.5004 6.75059C16.5004 6.55157 16.4214 6.36069 16.2806 6.21996L12.5306 2.46996Z" fill="white"/>
</svg>
