<svg width="24" height="24" viewBox="0 0 24 24" fill="none" xmlns="http://www.w3.org/2000/svg">
<path d="M12 4C16.4183 4 20 7.58172 20 12C20 16.4183 16.4183 20 12 20C7.58172 20 4 16.4183 4 12C4 7.58172 7.58172 4 12 4ZM12 5.5C8.41015 5.5 5.5 8.41015 5.5 12C5.5 15.5899 8.41015 18.5 12 18.5C15.5899 18.5 18.5 15.5899 18.5 12C18.5 8.41015 15.5899 5.5 12 5.5ZM12.1289 10.8428C12.5702 10.8432 12.9284 11.2013 12.9287 11.6426V14.8428H13.3721C13.7581 14.8434 14.0712 15.1568 14.0713 15.543C14.0712 15.9291 13.7581 16.2426 13.3721 16.2432H11.0859C10.6994 16.2432 10.3858 15.9295 10.3857 15.543C10.3858 15.1564 10.6994 14.8428 11.0859 14.8428H11.5283V12.2432H11.0859C10.6994 12.2432 10.3858 11.9295 10.3857 11.543C10.3858 11.1564 10.6994 10.8428 11.0859 10.8428H12.1289ZM12.001 8C12.5528 8.00049 13.0009 8.44808 13.001 9C13.0009 9.55193 12.5528 9.99951 12.001 10C11.4487 10 11.001 9.55223 11.001 9C11.0011 8.44778 11.4487 8 12.001 8Z" fill="#868B94"/>
</svg>
